<?xml version="1.0" encoding="utf-8"?>
<!-- Generator: Adobe Illustrator 16.0.4, SVG Export Plug-In . SVG Version: 6.00 Build 0)  -->
<!DOCTYPE svg PUBLIC "-//W3C//DTD SVG 1.1//EN" "http://www.w3.org/Graphics/SVG/1.1/DTD/svg11.dtd">
<svg version="1.1" id="default" xmlns="http://www.w3.org/2000/svg" xmlns:xlink="http://www.w3.org/1999/xlink" x="0px" y="0px"
	 width="250px" height="150px" viewBox="0 0 250 150" enable-background="new 0 0 250 150" xml:space="preserve">
<g>
	<path fill="#6B6B6B" d="M29.27,69.971v3.993H4.543v-35.62h24.578v3.99H9.279V53.66h18.497v3.989H9.279V69.97L29.27,69.971
		L29.27,69.971z M49.71,59.398v14.565h-4.737V59.398L31.215,38.344h5.633l10.668,16.962l10.419-16.962h5.385L49.71,59.398
		L49.71,59.398z M92.034,69.971v3.993H67.307v-35.62h24.578v3.99H72.044V53.66h18.494v3.989H72.044V69.97L92.034,69.971
		L92.034,69.971z"/>
	<path fill="#6B6B6B" d="M16.965,94.55c-0.28,0.925-0.698,1.729-1.256,2.414c-0.559,0.691-1.243,1.226-2.054,1.609
		c-0.812,0.389-1.756,0.583-2.839,0.583c-1.064,0-2.005-0.194-2.826-0.583c-0.819-0.384-1.508-0.918-2.066-1.609
		c-0.559-0.687-0.976-1.489-1.255-2.414c-0.28-0.923-0.418-1.922-0.418-2.996c0-1.069,0.139-2.073,0.418-3.008
		c0.279-0.929,0.696-1.739,1.255-2.43c0.559-0.687,1.247-1.226,2.066-1.626c0.821-0.395,1.762-0.588,2.826-0.588
		c1.083,0,2.027,0.193,2.839,0.588c0.811,0.4,1.496,0.939,2.054,1.626c0.558,0.69,0.976,1.501,1.256,2.43
		c0.278,0.935,0.418,1.938,0.418,3.008C17.384,92.628,17.243,93.627,16.965,94.55L16.965,94.55z M14.701,89.199
		c-0.219-0.691-0.52-1.27-0.901-1.739c-0.384-0.47-0.834-0.831-1.347-1.074c-0.515-0.243-1.06-0.366-1.636-0.366
		c-0.575,0-1.121,0.123-1.635,0.366c-0.514,0.243-0.964,0.604-1.348,1.074c-0.383,0.472-0.685,1.048-0.902,1.739
		c-0.219,0.686-0.328,1.469-0.328,2.354s0.109,1.674,0.328,2.359c0.217,0.691,0.519,1.264,0.902,1.723
		c0.383,0.465,0.833,0.815,1.347,1.059c0.514,0.248,1.06,0.373,1.635,0.373c0.576,0,1.122-0.125,1.636-0.373
		c0.513-0.242,0.963-0.594,1.347-1.059c0.382-0.459,0.683-1.031,0.901-1.723c0.219-0.686,0.327-1.475,0.327-2.359
		C15.028,90.668,14.92,89.885,14.701,89.199L14.701,89.199z M33.159,98.843v-9.887c0-0.901-0.245-1.62-0.733-2.144
		c-0.487-0.529-1.16-0.795-2.014-0.795c-0.681,0-1.269,0.113-1.766,0.342c-0.497,0.227-0.911,0.545-1.243,0.961
		c-0.331,0.414-0.579,0.896-0.745,1.451c-0.167,0.558-0.249,1.162-0.249,1.819v8.251h-2.223V84.237h2.092v2.321h0.052
		c0.923-1.771,2.388-2.656,4.396-2.656c0.89,0,1.629,0.129,2.223,0.394c0.593,0.265,1.073,0.632,1.438,1.103
		c0.367,0.47,0.625,1.03,0.773,1.68c0.147,0.652,0.221,1.371,0.221,2.165v9.601L33.159,98.843L33.159,98.843z M57.527,96.105
		c0.044,0.166,0.126,0.302,0.25,0.394c0.122,0.092,0.292,0.157,0.509,0.185c0.217,0.026,0.502,0.043,0.851,0.043h1.021v2.116h-1.701
		c-0.575,0-1.068-0.043-1.479-0.124c-0.409-0.087-0.741-0.242-0.993-0.47s-0.441-0.546-0.563-0.961
		c-0.122-0.411-0.182-0.956-0.182-1.638v-9.291h-2.302v-2.123h2.302v-4.373h2.223v4.373h2.694v2.123h-2.694v9.064
		C57.462,95.706,57.484,95.934,57.527,96.105L57.527,96.105z M74.205,98.843v-9.887c0-0.901-0.244-1.62-0.733-2.144
		c-0.487-0.529-1.16-0.795-2.014-0.795c-0.68,0-1.269,0.113-1.766,0.342c-0.497,0.227-0.911,0.545-1.243,0.961
		c-0.331,0.414-0.581,0.896-0.745,1.451c-0.166,0.558-0.249,1.162-0.249,1.819v8.251h-2.223V78.675h2.223v7.711h0.051
		c0.174-0.452,0.42-0.831,0.733-1.145c0.315-0.308,0.668-0.562,1.062-0.763c0.391-0.198,0.8-0.346,1.228-0.438
		c0.427-0.098,0.841-0.141,1.242-0.141c0.89,0,1.63,0.13,2.225,0.395c0.592,0.266,1.073,0.632,1.438,1.102
		c0.367,0.471,0.625,1.031,0.773,1.681c0.147,0.653,0.222,1.371,0.222,2.165v9.601H74.205L74.205,98.843z M82.185,92.261
		c-0.019,0.644,0.053,1.247,0.209,1.825c0.157,0.572,0.411,1.08,0.759,1.521c0.348,0.442,0.794,0.8,1.335,1.06
		c0.539,0.265,1.176,0.399,1.909,0.399c0.941,0,1.715-0.237,2.315-0.707c0.602-0.471,0.999-1.188,1.19-2.149H92.1
		c-0.297,1.642-0.952,2.873-1.963,3.704c-1.011,0.826-2.284,1.242-3.819,1.242c-1.081,0-2.02-0.189-2.812-0.567
		c-0.795-0.378-1.462-0.901-2.003-1.582c-0.54-0.675-0.945-1.483-1.216-2.43c-0.269-0.939-0.422-1.966-0.457-3.078
		c0-1.112,0.155-2.127,0.47-3.051c0.314-0.923,0.754-1.722,1.321-2.402c0.567-0.675,1.238-1.204,2.014-1.582
		c0.776-0.373,1.626-0.562,2.551-0.562c1.203,0,2.202,0.265,2.996,0.805c0.793,0.534,1.429,1.22,1.91,2.046
		c0.479,0.832,0.81,1.733,0.993,2.711c0.184,0.982,0.258,1.911,0.223,2.797H82.185L82.185,92.261z M89.601,88.535
		c-0.2-0.514-0.471-0.95-0.81-1.317c-0.34-0.366-0.743-0.659-1.206-0.875c-0.461-0.216-0.972-0.323-1.529-0.323
		c-0.577,0-1.095,0.107-1.557,0.323c-0.463,0.216-0.858,0.513-1.189,0.892c-0.333,0.378-0.594,0.814-0.786,1.312
		c-0.193,0.502-0.307,1.031-0.34,1.599h7.77C89.918,89.577,89.802,89.043,89.601,88.535L89.601,88.535z"/>
	<path fill="#6B6B6B" d="M11.896,118.312c1.08,0.434,2.302,0.789,3.665,1.075c1.362,0.28,2.75,0.589,4.163,0.919
		c1.412,0.334,2.799,0.724,4.162,1.176c1.363,0.449,2.583,1.054,3.665,1.819c1.079,0.769,1.942,1.729,2.59,2.896
		c0.649,1.16,0.973,2.624,0.973,4.39c0,1.896-0.424,3.517-1.271,4.865c-0.846,1.345-1.936,2.446-3.266,3.294
		c-1.328,0.848-2.816,1.463-4.461,1.841c-1.646,0.384-3.283,0.578-4.91,0.578c-1.995,0-3.882-0.254-5.659-0.75
		c-1.779-0.497-3.341-1.253-4.686-2.269c-1.347-1.016-2.411-2.312-3.191-3.894c-0.782-1.577-1.172-3.45-1.172-5.61h4.486
		c0,1.496,0.29,2.78,0.874,3.866c0.582,1.08,1.346,1.972,2.293,2.667c0.946,0.696,2.05,1.215,3.315,1.545
		c1.261,0.334,2.558,0.502,3.888,0.502c1.063,0,2.134-0.103,3.215-0.303c1.08-0.199,2.052-0.54,2.916-1.021
		c0.864-0.479,1.563-1.14,2.094-1.971c0.532-0.832,0.798-1.896,0.798-3.19c0-1.231-0.324-2.229-0.972-2.997
		c-0.648-0.762-1.512-1.389-2.592-1.868s-2.302-0.874-3.665-1.171c-1.364-0.303-2.75-0.61-4.162-0.924
		c-1.413-0.318-2.799-0.687-4.162-1.096c-1.363-0.423-2.585-0.968-3.665-1.652c-1.081-0.682-1.944-1.562-2.592-2.641
		c-0.649-1.08-0.973-2.437-0.973-4.066c0-1.799,0.366-3.354,1.098-4.665c0.73-1.312,1.702-2.397,2.916-3.245
		s2.593-1.479,4.138-1.896c1.547-0.414,3.133-0.621,4.761-0.621c1.828,0,3.523,0.218,5.086,0.648
		c1.561,0.432,2.932,1.112,4.112,2.046c1.18,0.931,2.11,2.101,2.792,3.517c0.682,1.414,1.056,3.1,1.122,5.063h-4.487
		c-0.266-2.56-1.188-4.416-2.766-5.562c-1.58-1.149-3.599-1.723-6.059-1.723c-0.996,0-1.978,0.098-2.941,0.297
		c-0.964,0.199-1.818,0.534-2.566,1c-0.748,0.469-1.346,1.09-1.795,1.873c-0.45,0.776-0.672,1.754-0.672,2.915
		c0,1.097,0.324,1.987,0.972,2.667C9.952,117.326,10.816,117.882,11.896,118.312L11.896,118.312z M66.359,140.366h-5.981
		l-12.862-18.015l-5.933,5.541v12.474h-4.735v-35.621h4.735v17.759l18.047-17.759h6.131l-15.004,14.368L66.359,140.366
		L66.359,140.366z M84.806,125.798v14.568h-4.737v-14.568l-13.76-21.053h5.633l10.669,16.96l10.419-16.96h5.383L84.806,125.798
		L84.806,125.798z"/>
	<path fill="#006184" d="M194.238,105.65c0.578,1.733,0.908,3.569,0.908,5.492c0,9.654-7.83,17.489-17.49,17.489
		c-9.654,0-17.488-7.835-17.488-17.489c0-8.73,6.402-15.944,14.762-17.258L157.818,76.78c-1.312,8.357-8.525,14.757-17.252,14.757
		c-9.66,0-17.489-7.829-17.489-17.489c0-9.66,7.829-17.489,17.489-17.489c1.869,0,3.656,0.329,5.34,0.88
		c-3.352-5.322-5.328-11.592-5.371-18.333c-19.283,0.019-34.915,15.653-34.915,34.942c0,19.298,15.648,34.946,34.946,34.946
		c0.762,0,1.512-0.064,2.264-0.113c-0.049,0.75-0.115,1.495-0.115,2.264c0,19.297,15.645,34.945,34.941,34.945
		c19.299,0,34.947-15.648,34.947-34.945c0-0.108-0.013-0.205-0.013-0.313c-0.016,0-0.026,0.005-0.037,0.005
		C205.842,110.835,199.568,108.939,194.238,105.65z"/>
	<path fill="#0098C9" d="M212.555,40.944c-9.645,0-18.354,3.934-24.676,10.251l-0.039,0.016c-3.17,3.17-7.543,5.136-12.375,5.136
		c-9.66,0-17.49-7.835-17.49-17.489c0-9.66,7.83-17.49,17.49-17.49c2.635,0,5.123,0.6,7.365,1.642l12.721-12.722
		c-5.686-4.004-12.602-6.377-20.086-6.377c-19.299,0-34.947,15.646-34.947,34.944c0,19.302,15.648,34.945,34.947,34.945
		c9.551,0,18.186-3.851,24.492-10.06l0.027-0.011c3.18-3.289,7.641-5.33,12.57-5.33c9.659,0,17.487,7.83,17.487,17.489
		c0,9.655-7.828,17.49-17.487,17.49c-1.869,0-3.666-0.292-5.353-0.838l-13.039,13.067c5.346,3.314,11.646,5.227,18.392,5.227
		c19.299,0,34.944-15.646,34.944-34.946C247.5,56.591,231.854,40.944,212.555,40.944z"/>
</g>
</svg>
